<svg width="28" height="28" viewBox="0 0 28 28" fill="none" xmlns="http://www.w3.org/2000/svg" stroke="#8091a2">
	<path d="M21.4247 6.57538C25.5252 10.6759 25.5252 17.3241 21.4247 21.4246C17.3241 25.5251 10.6759 25.5251 6.57544 21.4246C2.47493 17.3241 2.47493 10.6759 6.57544 6.57538C10.6759 2.47487 17.3242 2.47487 21.4247 6.57538" stroke-width="1.5" stroke-linecap="round" stroke-linejoin="round" />
	<path d="M20.1915 22.4665C19.7435 20.3198 17.1558 18.6667 14 18.6667C10.8441 18.6667 8.25647 20.3198 7.80847 22.4665" stroke-width="1.5" stroke-linecap="round" stroke-linejoin="round" />
	<path d="M16.4749 9.19179C17.8417 10.5586 17.8417 12.7747 16.4749 14.1415C15.108 15.5084 12.892 15.5084 11.5251 14.1415C10.1583 12.7747 10.1583 10.5586 11.5251 9.19179C12.892 7.82496 15.108 7.82496 16.4749 9.19179" stroke-width="1.5" stroke-linecap="round" stroke-linejoin="round" />
</svg>